<svg xmlns="http://www.w3.org/2000/svg" xmlns:xlink="http://www.w3.org/1999/xlink" width="500" zoomAndPan="magnify" viewBox="0 0 375 374.999991" height="500" preserveAspectRatio="xMidYMid meet" version="1.0"><defs><clipPath id="c3ce7b57ad"><path d="M 31 232 L 144 232 L 144 335 L 31 335 Z M 31 232 " clip-rule="nonzero"/></clipPath><clipPath id="9b7c483c42"><path d="M 363.863281 345.683594 L 26.722656 361.242188 L 11.40625 29.34375 L 348.550781 13.785156 Z M 363.863281 345.683594 " clip-rule="nonzero"/></clipPath><clipPath id="e82d139a2f"><path d="M 363.863281 345.683594 L 26.722656 361.242188 L 11.40625 29.34375 L 348.550781 13.785156 Z M 363.863281 345.683594 " clip-rule="nonzero"/></clipPath><clipPath id="1ddfe36556"><path d="M 24 183 L 26 183 L 26 197 L 24 197 Z M 24 183 " clip-rule="nonzero"/></clipPath><clipPath id="a168d6e437"><path d="M 363.863281 345.683594 L 26.722656 361.242188 L 11.40625 29.34375 L 348.550781 13.785156 Z M 363.863281 345.683594 " clip-rule="nonzero"/></clipPath><clipPath id="014447ac27"><path d="M 363.863281 345.683594 L 26.722656 361.242188 L 11.40625 29.34375 L 348.550781 13.785156 Z M 363.863281 345.683594 " clip-rule="nonzero"/></clipPath><clipPath id="480f6a94d3"><path d="M 318 189 L 321 189 L 321 203 L 318 203 Z M 318 189 " clip-rule="nonzero"/></clipPath><clipPath id="7af53e552a"><path d="M 363.863281 345.683594 L 26.722656 361.242188 L 11.40625 29.34375 L 348.550781 13.785156 Z M 363.863281 345.683594 " clip-rule="nonzero"/></clipPath><clipPath id="5965600a7f"><path d="M 363.863281 345.683594 L 26.722656 361.242188 L 11.40625 29.34375 L 348.550781 13.785156 Z M 363.863281 345.683594 " clip-rule="nonzero"/></clipPath><clipPath id="a09ff97fba"><path d="M 164 317 L 231 317 L 231 326 L 164 326 Z M 164 317 " clip-rule="nonzero"/></clipPath><clipPath id="61880ca320"><path d="M 363.863281 345.683594 L 26.722656 361.242188 L 11.40625 29.34375 L 348.550781 13.785156 Z M 363.863281 345.683594 " clip-rule="nonzero"/></clipPath><clipPath id="4acd9e86a1"><path d="M 363.863281 345.683594 L 26.722656 361.242188 L 11.40625 29.34375 L 348.550781 13.785156 Z M 363.863281 345.683594 " clip-rule="nonzero"/></clipPath><clipPath id="3c028a69dc"><path d="M 96 286 L 146 286 L 146 315 L 96 315 Z M 96 286 " clip-rule="nonzero"/></clipPath><clipPath id="7e628db9ef"><path d="M 363.863281 345.683594 L 26.722656 361.242188 L 11.40625 29.34375 L 348.550781 13.785156 Z M 363.863281 345.683594 " clip-rule="nonzero"/></clipPath><clipPath id="3a093bbd1f"><path d="M 363.863281 345.683594 L 26.722656 361.242188 L 11.40625 29.34375 L 348.550781 13.785156 Z M 363.863281 345.683594 " clip-rule="nonzero"/></clipPath><clipPath id="ba2f00bc5a"><path d="M 245 83 L 261 83 L 261 97 L 245 97 Z M 245 83 " clip-rule="nonzero"/></clipPath><clipPath id="756e5fdbe8"><path d="M 363.863281 345.683594 L 26.722656 361.242188 L 11.40625 29.34375 L 348.550781 13.785156 Z M 363.863281 345.683594 " clip-rule="nonzero"/></clipPath><clipPath id="46a0636a64"><path d="M 363.863281 345.683594 L 26.722656 361.242188 L 11.40625 29.34375 L 348.550781 13.785156 Z M 363.863281 345.683594 " clip-rule="nonzero"/></clipPath><clipPath id="a08ab807b2"><path d="M 317 207 L 319 207 L 319 214 L 317 214 Z M 317 207 " clip-rule="nonzero"/></clipPath><clipPath id="d9688957e4"><path d="M 363.863281 345.683594 L 26.722656 361.242188 L 11.40625 29.34375 L 348.550781 13.785156 Z M 363.863281 345.683594 " clip-rule="nonzero"/></clipPath><clipPath id="af6349f1ef"><path d="M 363.863281 345.683594 L 26.722656 361.242188 L 11.40625 29.34375 L 348.550781 13.785156 Z M 363.863281 345.683594 " clip-rule="nonzero"/></clipPath><clipPath id="30ca9acf73"><path d="M 257 96 L 266 96 L 266 105 L 257 105 Z M 257 96 " clip-rule="nonzero"/></clipPath><clipPath id="a95e3ccee3"><path d="M 363.863281 345.683594 L 26.722656 361.242188 L 11.40625 29.34375 L 348.550781 13.785156 Z M 363.863281 345.683594 " clip-rule="nonzero"/></clipPath><clipPath id="4bd7466968"><path d="M 363.863281 345.683594 L 26.722656 361.242188 L 11.40625 29.34375 L 348.550781 13.785156 Z M 363.863281 345.683594 " clip-rule="nonzero"/></clipPath><clipPath id="9b4babc91b"><path d="M 281 159 L 289 159 L 289 201 L 281 201 Z M 281 159 " clip-rule="nonzero"/></clipPath><clipPath id="d3e4359cfc"><path d="M 363.863281 345.683594 L 26.722656 361.242188 L 11.40625 29.34375 L 348.550781 13.785156 Z M 363.863281 345.683594 " clip-rule="nonzero"/></clipPath><clipPath id="53712129c4"><path d="M 363.863281 345.683594 L 26.722656 361.242188 L 11.40625 29.34375 L 348.550781 13.785156 Z M 363.863281 345.683594 " clip-rule="nonzero"/></clipPath><clipPath id="d72fea2d1b"><path d="M 18 21 L 356 21 L 356 354 L 18 354 Z M 18 21 " clip-rule="nonzero"/></clipPath><clipPath id="24884cec08"><path d="M 363.863281 345.683594 L 26.722656 361.242188 L 11.40625 29.34375 L 348.550781 13.785156 Z M 363.863281 345.683594 " clip-rule="nonzero"/></clipPath><clipPath id="d8cbc7b82b"><path d="M 363.863281 345.683594 L 26.722656 361.242188 L 11.40625 29.34375 L 348.550781 13.785156 Z M 363.863281 345.683594 " clip-rule="nonzero"/></clipPath><clipPath id="6b9acbcd2b"><path d="M 223 69 L 244 69 L 244 83 L 223 83 Z M 223 69 " clip-rule="nonzero"/></clipPath><clipPath id="d39be9ba25"><path d="M 363.863281 345.683594 L 26.722656 361.242188 L 11.40625 29.34375 L 348.550781 13.785156 Z M 363.863281 345.683594 " clip-rule="nonzero"/></clipPath><clipPath id="75803361ff"><path d="M 363.863281 345.683594 L 26.722656 361.242188 L 11.40625 29.34375 L 348.550781 13.785156 Z M 363.863281 345.683594 " clip-rule="nonzero"/></clipPath><clipPath id="062f9e6095"><path d="M 237 221 L 275 221 L 275 262 L 237 262 Z M 237 221 " clip-rule="nonzero"/></clipPath><clipPath id="9434f31622"><path d="M 363.863281 345.683594 L 26.722656 361.242188 L 11.40625 29.34375 L 348.550781 13.785156 Z M 363.863281 345.683594 " clip-rule="nonzero"/></clipPath><clipPath id="e5a2c30c41"><path d="M 363.863281 345.683594 L 26.722656 361.242188 L 11.40625 29.34375 L 348.550781 13.785156 Z M 363.863281 345.683594 " clip-rule="nonzero"/></clipPath><clipPath id="4dd1b6ddcb"><path d="M 257 96 L 259 96 L 259 97 L 257 97 Z M 257 96 " clip-rule="nonzero"/></clipPath><clipPath id="4fbfff32cf"><path d="M 363.863281 345.683594 L 26.722656 361.242188 L 11.40625 29.34375 L 348.550781 13.785156 Z M 363.863281 345.683594 " clip-rule="nonzero"/></clipPath><clipPath id="d27924ce33"><path d="M 363.863281 345.683594 L 26.722656 361.242188 L 11.40625 29.34375 L 348.550781 13.785156 Z M 363.863281 345.683594 " clip-rule="nonzero"/></clipPath><clipPath id="0b05dafbc1"><path d="M 224 300 L 241 300 L 241 308 L 224 308 Z M 224 300 " clip-rule="nonzero"/></clipPath><clipPath id="99b6704561"><path d="M 363.863281 345.683594 L 26.722656 361.242188 L 11.40625 29.34375 L 348.550781 13.785156 Z M 363.863281 345.683594 " clip-rule="nonzero"/></clipPath><clipPath id="bdca97101e"><path d="M 363.863281 345.683594 L 26.722656 361.242188 L 11.40625 29.34375 L 348.550781 13.785156 Z M 363.863281 345.683594 " clip-rule="nonzero"/></clipPath><clipPath id="a17d8142ab"><path d="M 92 274 L 164 274 L 164 311 L 92 311 Z M 92 274 " clip-rule="nonzero"/></clipPath><clipPath id="0357fb5f8b"><path d="M 363.863281 345.683594 L 26.722656 361.242188 L 11.40625 29.34375 L 348.550781 13.785156 Z M 363.863281 345.683594 " clip-rule="nonzero"/></clipPath><clipPath id="bef20621b8"><path d="M 363.863281 345.683594 L 26.722656 361.242188 L 11.40625 29.34375 L 348.550781 13.785156 Z M 363.863281 345.683594 " clip-rule="nonzero"/></clipPath><clipPath id="f0e699a2d4"><path d="M 203 271 L 216 271 L 216 275 L 203 275 Z M 203 271 " clip-rule="nonzero"/></clipPath><clipPath id="de33e25b42"><path d="M 363.863281 345.683594 L 26.722656 361.242188 L 11.40625 29.34375 L 348.550781 13.785156 Z M 363.863281 345.683594 " clip-rule="nonzero"/></clipPath><clipPath id="6cbfa819b2"><path d="M 363.863281 345.683594 L 26.722656 361.242188 L 11.40625 29.34375 L 348.550781 13.785156 Z M 363.863281 345.683594 " clip-rule="nonzero"/></clipPath><clipPath id="05f6ce5261"><path d="M 266 276 L 273 276 L 273 284 L 266 284 Z M 266 276 " clip-rule="nonzero"/></clipPath><clipPath id="d61a8d3d9f"><path d="M 363.863281 345.683594 L 26.722656 361.242188 L 11.40625 29.34375 L 348.550781 13.785156 Z M 363.863281 345.683594 " clip-rule="nonzero"/></clipPath><clipPath id="0ae2dad30f"><path d="M 363.863281 345.683594 L 26.722656 361.242188 L 11.40625 29.34375 L 348.550781 13.785156 Z M 363.863281 345.683594 " clip-rule="nonzero"/></clipPath><clipPath id="a09230bcf0"><path d="M 175 274 L 184 274 L 184 277 L 175 277 Z M 175 274 " clip-rule="nonzero"/></clipPath><clipPath id="4b32764914"><path d="M 363.863281 345.683594 L 26.722656 361.242188 L 11.40625 29.34375 L 348.550781 13.785156 Z M 363.863281 345.683594 " clip-rule="nonzero"/></clipPath><clipPath id="cf232e6efd"><path d="M 363.863281 345.683594 L 26.722656 361.242188 L 11.40625 29.34375 L 348.550781 13.785156 Z M 363.863281 345.683594 " clip-rule="nonzero"/></clipPath><clipPath id="94c08e09a1"><path d="M 126 256 L 138 256 L 138 264 L 126 264 Z M 126 256 " clip-rule="nonzero"/></clipPath><clipPath id="51439158d4"><path d="M 363.863281 345.683594 L 26.722656 361.242188 L 11.40625 29.34375 L 348.550781 13.785156 Z M 363.863281 345.683594 " clip-rule="nonzero"/></clipPath><clipPath id="d8f14350b2"><path d="M 363.863281 345.683594 L 26.722656 361.242188 L 11.40625 29.34375 L 348.550781 13.785156 Z M 363.863281 345.683594 " clip-rule="nonzero"/></clipPath></defs><rect x="-37.5" width="450" fill="#ffffff" y="-37.499999" height="449.999989" fill-opacity="1"/><rect x="-37.5" width="450" fill="#ffffff" y="-37.499999" height="449.999989" fill-opacity="1"/><g clip-path="url(#c3ce7b57ad)"><g clip-path="url(#9b7c483c42)"><g clip-path="url(#e82d139a2f)"><path fill="#b3302e" d="M 105.816406 318.125 C 90.472656 310.601562 76.363281 300.242188 64.644531 288.070312 C 58.753906 282.015625 53.382812 275.566406 48.671875 268.824219 C 43.960938 262.089844 39.691406 255.203125 36.148438 248.152344 C 41.941406 259.355469 48.972656 269.886719 57.125 279.433594 C 51.035156 272.261719 46.164062 265.007812 42.023438 257.335938 C 37.886719 249.664062 34.5 241.53125 31.859375 232.367188 C 32.792969 233.546875 33.691406 235.164062 34.5625 236.957031 C 35.457031 238.742188 36.421875 240.667969 37.351562 242.519531 C 38.246094 244.386719 39.25 246.097656 40.207031 247.457031 C 41.160156 248.820312 42.078125 249.820312 42.9375 250.191406 C 53.476562 269.898438 67.667969 287.6875 84.78125 302.285156 C 101.859375 316.902344 122.035156 328.140625 143.65625 334.734375 C 134.28125 335.238281 127.25 332.347656 121.589844 328.738281 C 115.832031 325.203125 111.371094 320.933594 105.816406 318.125 " fill-opacity="1" fill-rule="nonzero"/></g></g></g><g clip-path="url(#1ddfe36556)"><g clip-path="url(#a168d6e437)"><g clip-path="url(#014447ac27)"><path fill="#b3302e" d="M 24.4375 183.082031 C 24.621094 185.316406 24.808594 187.523438 24.988281 189.707031 C 25.136719 191.890625 25.503906 194.039062 25.746094 196.183594 C 24.851562 191.664062 24.402344 187.140625 24.4375 183.082031 " fill-opacity="1" fill-rule="nonzero"/></g></g></g><g clip-path="url(#480f6a94d3)"><g clip-path="url(#7af53e552a)"><g clip-path="url(#5965600a7f)"><path fill="#b3302e" d="M 318.878906 202.78125 C 319.433594 198.296875 319.785156 193.800781 320.160156 189.464844 C 320.269531 193.878906 319.667969 198.355469 318.878906 202.78125 " fill-opacity="1" fill-rule="nonzero"/></g></g></g><g clip-path="url(#a09ff97fba)"><g clip-path="url(#61880ca320)"><g clip-path="url(#4acd9e86a1)"><path fill="#b3302e" d="M 164.246094 323.1875 C 166.792969 323.132812 169.347656 322.929688 171.917969 322.882812 C 190.96875 324.800781 210.789062 323.253906 230.078125 317.667969 C 219.65625 320.832031 208.707031 323.660156 197.484375 324.949219 C 186.296875 326.242188 174.832031 325.910156 164.246094 323.1875 " fill-opacity="1" fill-rule="nonzero"/></g></g></g><g clip-path="url(#3c028a69dc)"><g clip-path="url(#7e628db9ef)"><g clip-path="url(#3a093bbd1f)"><path fill="#b3302e" d="M 145.074219 314.320312 C 135.867188 311.964844 126.898438 308.347656 118.707031 303.679688 C 110.507812 299.011719 103.09375 293.296875 96.851562 286.949219 C 109.648438 299.25 126.519531 308.90625 145.074219 314.320312 " fill-opacity="1" fill-rule="nonzero"/></g></g></g><g clip-path="url(#ba2f00bc5a)"><g clip-path="url(#756e5fdbe8)"><g clip-path="url(#46a0636a64)"><path fill="#b3302e" d="M 260.019531 96.574219 C 259.734375 96.945312 259.285156 97.007812 258.78125 96.933594 C 258.378906 96.726562 257.96875 96.589844 257.550781 96.5625 C 253.714844 92.097656 249.550781 87.851562 245.027344 83.957031 C 246.359375 84.613281 247.992188 84.699219 249.257812 85.554688 C 250.488281 86.671875 251.332031 87.753906 252.089844 88.679688 C 252.84375 89.613281 253.457031 90.464844 254.082031 91.335938 C 254.722656 92.1875 255.417969 92.996094 256.367188 93.820312 C 257.316406 94.644531 258.421875 95.582031 260.019531 96.574219 " fill-opacity="1" fill-rule="nonzero"/></g></g></g><g clip-path="url(#a08ab807b2)"><g clip-path="url(#d9688957e4)"><g clip-path="url(#af6349f1ef)"><path fill="#b3302e" d="M 317.972656 207.714844 C 318.011719 207.886719 318.058594 208.058594 318.105469 208.230469 C 317.867188 209.765625 317.660156 211.289062 317.316406 212.777344 C 317.21875 212.941406 317.132812 213.089844 317.023438 213.269531 C 317.339844 211.429688 317.652344 209.578125 317.972656 207.714844 " fill-opacity="1" fill-rule="nonzero"/></g></g></g><g clip-path="url(#30ca9acf73)"><g clip-path="url(#a95e3ccee3)"><g clip-path="url(#4bd7466968)"><path fill="#b3302e" d="M 265.050781 102.207031 C 264.472656 102.878906 263.894531 103.5625 263.695312 104.402344 C 262.785156 103.019531 261.730469 101.769531 260.734375 100.449219 C 259.757812 99.113281 258.664062 97.878906 257.59375 96.617188 C 258.011719 96.753906 258.414062 96.878906 258.78125 96.933594 C 259.289062 97.203125 259.785156 97.597656 260.289062 98.042969 C 260.777344 98.511719 261.25 99.050781 261.746094 99.578125 C 262.726562 100.648438 263.839844 101.625 265.050781 102.207031 " fill-opacity="1" fill-rule="nonzero"/></g></g></g><g clip-path="url(#9b4babc91b)"><g clip-path="url(#d3e4359cfc)"><g clip-path="url(#53712129c4)"><path fill="#b3302e" d="M 286.03125 171.515625 C 286.109375 173.515625 287.945312 175.289062 288.421875 176.265625 C 287.15625 181.570312 285.652344 186.667969 283.992188 192.539062 C 284.257812 193.53125 283.976562 195.496094 284.503906 197.539062 C 283.539062 198.484375 282.664062 199.515625 281.855469 200.609375 C 285.285156 187.84375 286.421875 173.992188 284.902344 159.835938 C 285.261719 161.703125 285.484375 163.621094 285.757812 165.554688 C 285.882812 167.507812 286.027344 169.496094 286.03125 171.515625 " fill-opacity="1" fill-rule="nonzero"/></g></g></g><g clip-path="url(#d72fea2d1b)"><g clip-path="url(#24884cec08)"><g clip-path="url(#d8cbc7b82b)"><path fill="#b3302e" d="M 53.726562 178.441406 C 53.203125 172.878906 53.613281 167.0625 54.382812 161.238281 C 55.238281 155.414062 56.632812 149.601562 58.273438 143.90625 C 61.695312 132.515625 66.066406 121.761719 69.5 111.132812 C 65.671875 116.339844 61.929688 122.441406 58.867188 128.882812 C 55.765625 135.304688 53.183594 141.976562 51.03125 148.140625 C 46.859375 160.488281 44.484375 170.804688 40.570312 172.824219 C 38.601562 173.828125 37.644531 171.921875 37.328125 168.058594 C 37.222656 166.136719 37.371094 163.738281 37.613281 161.003906 C 37.949219 158.285156 38.453125 155.234375 39.160156 152.019531 C 40.574219 145.582031 42.925781 138.539062 45.507812 131.917969 C 48.132812 125.296875 51.128906 119.167969 53.390625 114.125 C 51.425781 116.464844 51.425781 116.464844 49.460938 118.800781 C 51.476562 116.449219 53.304688 114.097656 53.730469 111.390625 C 52.664062 112.5 51.546875 113.980469 50.363281 115.601562 C 49.167969 117.214844 47.890625 118.960938 46.753906 120.695312 C 45.597656 122.421875 44.363281 124.046875 43.339844 125.449219 C 42.300781 126.84375 41.3125 127.953125 40.433594 128.558594 C 40.449219 126.648438 40.433594 124.703125 40.511719 122.769531 C 35.015625 129.132812 29.929688 139.882812 26.394531 151.316406 C 22.800781 162.746094 20.761719 174.710938 18.246094 183.371094 C 21.976562 162.398438 27.933594 140.777344 37.96875 120.152344 C 42.957031 109.851562 48.890625 99.804688 55.804688 90.265625 C 62.769531 80.769531 70.75 71.8125 79.640625 63.65625 C 88.546875 55.511719 98.472656 48.300781 109.097656 42.15625 C 119.738281 36.03125 131.203125 31.195312 143.039062 27.664062 C 154.882812 24.105469 167.164062 22.164062 179.378906 21.558594 C 191.601562 20.996094 203.855469 21.808594 215.597656 24.238281 C 228.816406 26.511719 241.707031 30.054688 253.910156 35.074219 C 260.070312 37.476562 265.957031 40.40625 271.796875 43.425781 C 277.527344 46.597656 283.210938 49.914062 288.566406 53.660156 C 294.015625 57.304688 299.125 61.375 304.160156 65.558594 C 309.058594 69.859375 313.882812 74.304688 318.3125 79.097656 C 327.25 88.625 335.28125 99.074219 341.929688 110.359375 C 344.195312 114.710938 347.386719 122.492188 349.585938 131.480469 C 351.875 140.4375 353.316406 150.46875 353.847656 158.84375 C 355.886719 173.535156 356.144531 188.566406 354.65625 203.550781 C 354.175781 207.277344 353.851562 211.046875 353.167969 214.757812 L 352.230469 220.347656 L 351.074219 225.902344 L 350.488281 228.6875 L 349.796875 231.441406 L 348.398438 236.964844 L 346.792969 242.433594 C 346.269531 244.269531 345.707031 246.089844 345.078125 247.886719 C 342.273438 255.5 338.628906 262.746094 334.644531 269.773438 C 330.574219 276.757812 325.9375 283.386719 320.886719 289.6875 C 310.652344 302.183594 298.625 313.226562 285.121094 322.328125 C 258.171875 340.621094 225.667969 351.484375 191.332031 353.648438 C 187.910156 353.835938 184.140625 353.464844 180.996094 352.765625 C 177.84375 351.972656 175.328125 350.894531 174.304688 349.789062 C 173.273438 348.683594 173.730469 347.554688 176.441406 346.621094 C 177.792969 346.136719 179.710938 345.761719 182.28125 345.347656 C 184.851562 344.847656 188.085938 344.53125 192.070312 343.992188 C 205.230469 341.917969 218.164062 338.726562 230.664062 334.363281 C 243.15625 329.960938 255.167969 324.316406 266.539062 317.59375 C 266.179688 318.488281 265.175781 319.480469 263.800781 320.535156 C 263.109375 321.058594 262.328125 321.601562 261.492188 322.148438 C 260.636719 322.671875 259.722656 323.1875 258.78125 323.714844 C 255.058594 325.894531 250.839844 327.859375 248.464844 329.886719 C 257.871094 326.675781 266.140625 322.710938 273.929688 318.058594 C 281.707031 313.386719 289.019531 307.980469 296.203125 301.304688 C 286.625 310.210938 276.027344 318.027344 264.636719 324.582031 C 278.863281 316.410156 292.785156 305.9375 304.816406 293.074219 C 316.941406 280.324219 327.046875 265.148438 334.210938 248.839844 C 336.867188 242.914062 341.019531 238.03125 344.386719 231.867188 C 347.839844 225.792969 350.449219 218.34375 349.617188 208.644531 C 346.722656 220.039062 342.617188 231.152344 337.429688 241.710938 C 332.21875 252.265625 325.929688 262.257812 318.761719 271.523438 C 304.402344 290.050781 286.582031 305.710938 266.539062 317.59375 C 266.582031 317.5 266.640625 317.40625 266.652344 317.324219 C 257.8125 322.773438 248.816406 327.058594 239.589844 330.417969 C 230.371094 333.78125 220.9375 336.285156 211.082031 338.066406 C 212.597656 337.707031 214.128906 337.390625 215.632812 336.976562 C 217.132812 336.566406 218.628906 336.160156 220.101562 335.761719 C 223.0625 335.042969 225.882812 334.164062 228.585938 333.632812 L 223.230469 334.730469 L 217.859375 335.621094 C 214.300781 336.273438 210.695312 336.578125 207.136719 337.046875 C 199.980469 337.691406 192.863281 338.152344 185.753906 338.011719 C 178.652344 338.019531 171.570312 337.421875 164.546875 336.59375 C 161.042969 336.046875 157.53125 335.636719 154.070312 334.878906 C 152.339844 334.523438 150.597656 334.203125 148.875 333.8125 L 143.730469 332.527344 C 163.570312 335.339844 183.910156 335.265625 203.871094 331.824219 C 223.839844 328.429688 243.476562 321.5625 261.179688 311.226562 C 278.886719 300.933594 294.628906 287.199219 306.941406 271.058594 C 319.269531 254.953125 328.109375 236.433594 332.5625 217.449219 C 327.734375 227.4375 323.574219 239.246094 317.894531 250.195312 C 312.246094 261.085938 305.148438 271.011719 297.109375 276.402344 C 302.859375 269.835938 308.105469 262.8125 312.75 255.375 C 317.367188 247.921875 321.398438 240.070312 324.777344 231.902344 C 331.542969 215.578125 335.679688 197.921875 336.609375 179.8125 C 336.816406 182.507812 337.070312 185.15625 337.242188 187.824219 C 339.523438 176.628906 339.296875 164.683594 337.46875 153.046875 C 335.632812 141.375 332.144531 130.070312 328.328125 119.34375 C 327.644531 117.417969 327.042969 115.476562 326.242188 113.582031 C 327.007812 115.460938 327.621094 117.421875 328.328125 119.34375 C 335.128906 139.199219 337.707031 159.851562 336.609375 179.8125 C 335.886719 170.621094 335.417969 161 333.933594 149.449219 C 333.734375 152.671875 333.574219 156.53125 333.597656 160.683594 C 333.457031 164.847656 333.457031 169.3125 333.109375 173.761719 C 333.164062 185.417969 331.898438 197.113281 329.121094 208.3125 C 332.753906 190.824219 332.191406 172.878906 328.21875 157.503906 C 328.839844 169.320312 328.578125 181.277344 326.761719 193.046875 C 324.964844 204.789062 321.949219 216.375 317.308594 227.101562 C 319.414062 221.042969 321.230469 214.890625 322.472656 208.621094 C 323.832031 202.378906 324.628906 196.035156 325.128906 189.699219 C 327.917969 168.539062 326.0625 146.359375 318.867188 125.453125 C 319.238281 126.210938 319.53125 127.003906 319.855469 127.785156 C 319.328125 126.1875 318.648438 124.648438 318.011719 123.097656 C 315.058594 114.988281 311.324219 107.089844 306.839844 99.585938 C 302.652344 92.933594 297.199219 87.324219 291.390625 82.414062 C 290.542969 81.457031 289.699219 80.503906 288.859375 79.558594 C 290.980469 80.886719 292.394531 81.253906 289.53125 77.484375 C 283.535156 69.304688 275.269531 62.484375 266.214844 56.476562 C 263.988281 54.910156 261.589844 53.558594 259.261719 52.074219 C 256.90625 50.625 254.453125 49.296875 252.054688 47.835938 C 247.121094 45.089844 242.113281 42.296875 237.023438 39.464844 C 231.667969 36.378906 223.578125 34.113281 214.769531 32.800781 C 212.542969 31.667969 211.203125 31.816406 209.984375 32.164062 C 208.074219 31.984375 206.160156 31.707031 204.230469 31.585938 C 201.890625 31.339844 199.554688 31.011719 197.214844 30.871094 C 194.871094 30.777344 192.539062 30.710938 190.230469 30.847656 C 192.503906 30.949219 194.820312 31.070312 197.164062 31.136719 C 199.507812 31.242188 201.859375 31.453125 204.230469 31.585938 C 205.984375 31.777344 207.710938 32.113281 209.445312 32.328125 C 208.140625 32.761719 206.78125 33.242188 204.226562 32.902344 C 220.050781 35.644531 235.695312 41.003906 250.046875 49.023438 C 264.414062 57 277.554688 67.375 288.859375 79.558594 C 287.035156 78.53125 284.652344 76.929688 283.5625 76.375 C 286.210938 78.300781 288.890625 80.246094 291.390625 82.414062 C 298.488281 90.46875 304.851562 99.214844 310.25 108.589844 C 308.378906 105.933594 306.28125 103.691406 304.21875 101.917969 C 311.863281 115.023438 317.8125 129.191406 321.3125 144.054688 C 323.105469 151.46875 324.382812 159.035156 324.964844 166.671875 C 325.558594 174.304688 325.753906 182.015625 325.128906 189.699219 C 321.3125 218.394531 308.617188 245.035156 290.058594 265.867188 C 301.386719 255.75 310.914062 242.300781 317.308594 227.101562 C 313.621094 237.410156 308.730469 247.328125 302.75 256.558594 C 296.746094 265.78125 289.585938 274.25 281.550781 281.78125 C 265.527344 296.898438 245.554688 307.769531 224.445312 313.089844 C 226.117188 311.835938 227.929688 310.539062 229.773438 309.269531 C 231.613281 307.992188 233.414062 306.554688 235.125 305.230469 C 236.847656 303.917969 238.351562 302.40625 239.660156 301.058594 C 240.304688 300.371094 240.890625 299.699219 241.394531 299.027344 C 241.882812 298.335938 242.292969 297.652344 242.613281 296.992188 C 242.351562 296.632812 241.410156 296.710938 240.246094 296.9375 C 239.0625 297.121094 237.648438 297.457031 236.480469 297.707031 C 234.136719 298.214844 232.765625 298.382812 235.980469 296.382812 C 238.878906 294.492188 241.550781 292.535156 244.175781 290.800781 C 246.714844 288.90625 249.242188 287.285156 251.515625 285.5 C 256.183594 282.128906 260.199219 278.734375 263.679688 275.523438 C 270.550781 268.992188 274.753906 262.445312 274.414062 255.347656 C 274.234375 254.550781 272.484375 254.90625 270.117188 255.691406 C 268.890625 256.046875 267.496094 256.496094 266.058594 256.976562 C 265.347656 257.207031 264.617188 257.449219 263.882812 257.691406 C 263.128906 257.898438 262.375 258.105469 261.636719 258.3125 C 260.15625 258.699219 258.769531 259.066406 257.496094 259.277344 C 256.210938 259.46875 255.097656 259.5625 254.253906 259.503906 C 252.5625 259.394531 251.933594 258.683594 253.144531 257 C 257.695312 251.949219 265.632812 242.808594 271.804688 231.59375 C 272.953125 230.140625 273.875 228.5 274.933594 226.902344 C 275.921875 225.265625 276.804688 223.527344 277.761719 221.789062 C 278.132812 221.421875 277.972656 220.421875 277.835938 219.21875 C 280.5 212.890625 282.488281 206.507812 283.898438 200.824219 C 285.375 195.148438 286.085938 190.132812 286.820312 186.570312 C 287.039062 185.234375 287.253906 183.902344 287.472656 182.574219 C 287.714844 181.246094 287.769531 179.902344 287.9375 178.566406 C 288.53125 177.171875 289.253906 175.964844 290.097656 175 C 289.347656 173.277344 288.917969 171.570312 288.414062 169.886719 C 288.484375 162.609375 287.734375 155.40625 286.207031 148.410156 C 285.972656 144.367188 285.710938 140.21875 284.882812 136.226562 C 284.335938 136.53125 283.796875 137.417969 282.953125 136.929688 C 281.550781 132.652344 279.640625 128.578125 277.699219 124.535156 C 275.574219 120.585938 273.394531 116.648438 270.785156 112.992188 C 270.085938 111.25 269.382812 109.578125 268.796875 107.886719 C 268.507812 107.042969 268.261719 106.179688 268.023438 105.328125 C 267.761719 104.496094 267.535156 103.660156 267.34375 102.8125 C 262.023438 100.742188 256.097656 95.320312 249.132812 89.84375 C 242.273438 84.285156 234.15625 78.929688 226.792969 76.085938 L 226.730469 76.28125 C 219.554688 72.996094 211.980469 70.40625 204.082031 68.726562 C 202.871094 67.972656 201.730469 67.128906 200.65625 66.199219 C 198.515625 66.75 196.40625 66.605469 195.363281 66.902344 C 189.027344 65.476562 183.527344 64.128906 177.824219 63.164062 C 176.804688 63.632812 175 65.609375 172.875 65.785156 C 170.722656 65.820312 168.640625 66.15625 166.570312 66.371094 C 164.515625 66.6875 162.515625 67.125 160.535156 67.519531 C 155.882812 68.371094 151.136719 69.226562 146.476562 70.644531 C 130.65625 74.980469 115.777344 82.636719 102.757812 92.992188 C 101.890625 92.855469 101.183594 92.320312 100.472656 91.789062 C 99.886719 93.066406 98.890625 94.285156 97.8125 95.378906 C 97.28125 95.929688 96.742188 96.464844 96.261719 96.996094 C 95.796875 97.539062 95.414062 98.09375 95.144531 98.636719 C 95.21875 98.101562 95.140625 97.65625 94.746094 97.398438 C 93.757812 99.117188 92.835938 100.347656 91.984375 101.367188 C 91.160156 102.410156 90.34375 103.199219 89.488281 103.925781 C 88.617188 104.644531 87.726562 105.324219 86.800781 106.1875 C 85.863281 107.042969 84.796875 108.019531 83.652344 109.367188 C 82.824219 110.734375 82.753906 112.453125 82.128906 113.882812 C 81.625 114.472656 81.203125 115.113281 80.734375 115.734375 C 78.925781 116.964844 77.277344 118.34375 76.019531 119.96875 C 74.722656 121.570312 73.550781 123.28125 72.65625 125.15625 C 72.183594 126.082031 71.738281 127.03125 71.300781 127.988281 C 70.867188 128.949219 70.527344 129.964844 70.144531 130.96875 C 69.765625 131.972656 69.382812 132.992188 69 134.019531 C 68.664062 135.066406 68.3125 136.121094 67.933594 137.179688 C 64.121094 145.378906 61.105469 154.09375 59.203125 163.175781 C 58.550781 166.785156 57.5 169.261719 56.558594 171.519531 C 56.03125 172.660156 55.53125 173.730469 55.015625 174.832031 C 54.535156 175.949219 54.113281 177.117188 53.726562 178.441406 " fill-opacity="1" fill-rule="nonzero"/></g></g></g><g clip-path="url(#6b9acbcd2b)"><g clip-path="url(#d39be9ba25)"><g clip-path="url(#75803361ff)"><path fill="#b3302e" d="M 243.347656 82.574219 C 237.335938 77.59375 230.777344 73.175781 223.753906 69.445312 C 224.734375 69.851562 225.714844 70.230469 226.683594 70.59375 C 227.652344 70.960938 228.578125 71.402344 229.515625 71.792969 C 230.449219 72.195312 231.375 72.582031 232.28125 73 C 233.164062 73.457031 234.039062 73.925781 234.886719 74.414062 C 236.613281 75.347656 238.1875 76.507812 239.617188 77.847656 C 241.082031 79.128906 242.308594 80.75 243.347656 82.574219 " fill-opacity="1" fill-rule="nonzero"/></g></g></g><g clip-path="url(#062f9e6095)"><g clip-path="url(#9434f31622)"><g clip-path="url(#e5a2c30c41)"><path fill="#b3302e" d="M 247.339844 258.59375 C 245.699219 258.84375 244.097656 259.242188 242.429688 259.640625 C 240.789062 260.070312 239.195312 260.660156 237.515625 261.203125 C 252.792969 251.679688 265.488281 237.878906 273.8125 221.5 L 274.003906 221.570312 C 271.027344 228.347656 265.65625 235.734375 260.140625 241.917969 C 254.703125 248.210938 249.398438 253.550781 247.339844 258.59375 " fill-opacity="1" fill-rule="nonzero"/></g></g></g><g clip-path="url(#4dd1b6ddcb)"><g clip-path="url(#4fbfff32cf)"><g clip-path="url(#d27924ce33)"><path fill="#b3302e" d="M 258.78125 96.933594 C 258.414062 96.878906 258.011719 96.753906 257.59375 96.617188 C 257.582031 96.59375 257.570312 96.582031 257.550781 96.5625 C 257.96875 96.589844 258.378906 96.726562 258.78125 96.933594 " fill-opacity="1" fill-rule="nonzero"/></g></g></g><g clip-path="url(#0b05dafbc1)"><g clip-path="url(#99b6704561)"><g clip-path="url(#bdca97101e)"><path fill="#b3302e" d="M 226.78125 307.191406 C 226.015625 307.429688 225.269531 307.660156 224.511719 307.894531 C 227.304688 306.753906 230.105469 305.652344 232.820312 304.351562 C 235.582031 303.160156 238.238281 301.742188 240.917969 300.402344 C 236.859375 303.015625 231.992188 305.359375 226.78125 307.191406 " fill-opacity="1" fill-rule="nonzero"/></g></g></g><g clip-path="url(#a17d8142ab)"><g clip-path="url(#0357fb5f8b)"><g clip-path="url(#bef20621b8)"><path fill="#b3302e" d="M 163.058594 310.996094 C 161.546875 310.867188 160.046875 310.636719 158.550781 310.394531 C 157.054688 310.152344 155.550781 309.941406 154.054688 309.671875 C 151.085938 309.023438 148.078125 308.523438 145.152344 307.6875 C 139.226562 306.253906 133.460938 304.222656 127.777344 301.992188 C 113.613281 295.1875 101.226562 285.515625 92.167969 274.230469 C 111.175781 292.78125 135.917969 306.082031 163.058594 310.996094 " fill-opacity="1" fill-rule="nonzero"/></g></g></g><g clip-path="url(#f0e699a2d4)"><g clip-path="url(#de33e25b42)"><g clip-path="url(#6cbfa819b2)"><path fill="#b3302e" d="M 215.195312 273.5 C 214.246094 273.617188 213.304688 273.765625 212.347656 273.839844 C 211.382812 273.886719 210.417969 273.9375 209.449219 273.984375 C 207.542969 274.132812 205.585938 274.035156 203.679688 274.058594 C 205.519531 273.710938 207.378906 273.449219 209.179688 272.960938 L 211.902344 272.320312 C 212.800781 272.085938 213.683594 271.792969 214.578125 271.535156 C 214.101562 272.339844 214.925781 272.933594 215.195312 273.5 " fill-opacity="1" fill-rule="nonzero"/></g></g></g><g clip-path="url(#05f6ce5261)"><g clip-path="url(#d61a8d3d9f)"><g clip-path="url(#0ae2dad30f)"><path fill="#b3302e" d="M 269.464844 281.230469 C 268.523438 282 267.574219 282.765625 266.640625 283.523438 C 268.800781 281.238281 270.730469 278.714844 272.671875 276.273438 C 272.105469 277.3125 270.496094 279.519531 269.464844 281.230469 " fill-opacity="1" fill-rule="nonzero"/></g></g></g><g clip-path="url(#a09230bcf0)"><g clip-path="url(#4b32764914)"><g clip-path="url(#cf232e6efd)"><path fill="#b3302e" d="M 175.371094 274.308594 C 176.703125 274.574219 178.054688 274.671875 179.402344 274.816406 C 180.75 274.957031 182.101562 275.125 183.457031 275.148438 C 181.84375 275.589844 180.246094 275.960938 178.597656 276.609375 C 177.738281 275.691406 176.632812 274.988281 175.371094 274.308594 " fill-opacity="1" fill-rule="nonzero"/></g></g></g><g clip-path="url(#94c08e09a1)"><g clip-path="url(#51439158d4)"><g clip-path="url(#d8f14350b2)"><path fill="#b3302e" d="M 135.402344 262.964844 C 133.804688 262.027344 132.246094 261.074219 130.738281 260.109375 C 129.292969 259.042969 127.816406 258.085938 126.5 256.972656 C 130.148438 259.171875 133.9375 261.335938 137.839844 263.097656 C 136.6875 263.203125 135.730469 263.339844 135.402344 262.964844 " fill-opacity="1" fill-rule="nonzero"/></g></g></g></svg>